<svg xmlns="http://www.w3.org/2000/svg" width="240" height="36.176" viewBox="0 0 240 36.176"><g transform="translate(-11875 1677)"><path d="M232.948,403.55h8.3l9.81-14.946,9.778,14.946h8.293l-18.05-27.6Zm113.866-27.863-27.6,18.118,27.6,18.05v-8.284L331.869,393.8l14.945-9.813Zm-240,8.3L121.76,393.8l-14.946,9.776v8.291l27.6-18.057-27.6-18.118Zm68.312-8-7.412,11.294h0l-2.373,3.616-1.665-2.544-.007-.009-8.084-12.357-.023-.032h-8.289l18.05,27.6,17.869-27.215.256-.389h-8.3Z" transform="translate(11768.186 -2052.687)" fill="#009ad7"/><path d="M126.141,383.756h9.914v-7.777H114.507Zm187.834-7.74v15.079l.264-.174,7.426-4.961v-9.944ZM114.525,411.574H136.05v-7.681h-9.993Zm33.314.036h7.537V394.438l-7.537-11.74Zm27.313,0h7.64V382.679l-7.64,11.847Zm138.822-15.079v15.079h7.692v-9.957l-7.421-4.945Zm-9.723-8.668v-.1a11.308,11.308,0,0,0-2.991-8.136c-2.3-2.339-5.744-3.609-10.188-3.609H275.089v35.6h7.692V400.219h6.039l7.493,11.391H305.3L296.76,398.9c4.444-1.679,7.489-5.287,7.489-11.034m-7.79.4c0,3-2.151,5.034-5.9,5.034h-7.789v-10.22h7.637c3.749,0,6.045,1.731,6.045,5.083ZM218.584,393a8.3,8.3,0,0,0,4.595-7.679v-.1a8.218,8.218,0,0,0-2.4-6.049c-1.995-2.038-5.141-3.153-9.135-3.153H195.415v35.6h16.627c7.889,0,13.082-3.252,13.082-9.763v-.1c0-4.776-2.5-7.167-6.538-8.744M202.9,382.879h7.589c3.248,0,5.042,1.322,5.042,3.663v.1c0,2.642-2.147,3.762-5.541,3.762H202.9Zm14.583,18c0,2.643-2.051,3.863-5.445,3.863H202.9v-7.833h8.888c3.943,0,5.692,1.472,5.692,3.863Z" transform="translate(11768.187 -2052.687)" fill="#686869"/></g></svg>