<svg xmlns="http://www.w3.org/2000/svg" width="158.649" height="99.683" viewBox="0 0 158.649 99.683"><g transform="translate(-9293.296 4283)"><path d="M541.565,0l32.72,50.042L541.7,99.682h41.324l21.316-32.474-1.469,2.238,1.5-2.287,11.3-17.215L606.327,35.84l-1.952-2.946L582.869,0Z" transform="translate(8772.156 -4283)" fill="#c40055"/><path d="M693.628,99.682H607.466L640.05,50.043,607.331,0h33.22a15.7,15.7,0,0,1,13.077,7.016l49.607,74.761a11.53,11.53,0,0,1-9.607,17.9" transform="translate(8746.769 -4283)" fill="#800038"/><path d="M550.414,32.893,528.909,0H508.3l32.719,50.043L508.431,99.682h20.633L550.38,67.208l-1.469,2.238,1.5-2.287,11.3-17.215L552.365,35.84Z" transform="translate(8785 -4283)" fill="#e0279a"/></g></svg>