<?xml version="1.0" ?>
<svg version="1.1" xmlns="http://www.w3.org/2000/svg" xmlns:xlink="http://www.w3.org/1999/xlink" viewBox="0 0 1024 1024">
	<circle fill="#ffffff" cx="512" cy="313.35" r="313.34"></circle>
	<path fill="#0a9ad7" d="m604.17,430.89c-12.69-.61-22.49-11.39-21.88-24.09s11.39-22.49,24.09-21.88c12.27.59,21.91,10.7,21.91,22.98-.34,12.99-11.12,23.27-24.12,22.99m-180.06-102.38c-19.58.41-35.83-15.06-36.37-34.64v-72.19c.53-19.59,16.78-35.06,36.37-34.64h160.76c19.59-.42,35.84,15.06,36.37,34.64v72.19c-.55,19.58-16.79,35.05-36.37,34.64h-160.76Zm133.66,69.79h-106.56c-4.62,0-8.37-3.75-8.37-8.37s3.75-8.37,8.37-8.37h106.56c4.62,0,8.37,3.75,8.37,8.37s-3.75,8.37-8.37,8.37m0,30.08h-106.56c-4.62.25-8.57-3.28-8.82-7.9-.25-4.62,3.28-8.56,7.9-8.82.31-.02.61-.02.92,0h106.56c4.62-.25,8.57,3.28,8.82,7.9.25,4.62-3.28,8.56-7.9,8.82-.31.02-.61.02-.92,0m-152.91,2.51c-12.69-.64-22.47-11.44-21.83-24.14.64-12.69,11.44-22.47,24.14-21.83,12.24.61,21.86,10.72,21.86,22.98-.33,13.02-11.15,23.31-24.17,22.99m46.38-281.63h106.56c4.62-.25,8.57,3.28,8.82,7.9.25,4.62-3.28,8.56-7.9,8.82-.31.02-.61.02-.92,0h-106.56c-4.62.25-8.57-3.28-8.82-7.9-.25-4.62,3.28-8.56,7.9-8.82.31-.02.61-.02.92,0m194.78,130.9v-108.74c-.64-26.14-22.34-46.8-48.48-46.17h-185.02c-26.14-.63-47.84,20.04-48.48,46.17v108.77h-.7c-11.74-.27-21.47,9.02-21.76,20.76v41.46c.3,11.73,10.03,21,21.76,20.73h.7v61.39c.13,13.96,6.71,27.07,17.82,35.52v39.76c.27,10.8,9.25,19.34,20.05,19.08h8.25c10.8.27,19.78-8.27,20.05-19.08v-29.08h147.15v29.08c.27,10.8,9.25,19.34,20.05,19.08h8.25c10.79.28,19.77-8.24,20.05-19.04,0-.01,0-.02,0-.04v-37.73c12.67-8.33,20.33-22.44,20.43-37.6v-61.26c11.62.14,21.18-9.09,21.46-20.71v-41.46c-.27-11.61-9.84-20.85-21.46-20.71"></path>
	<rect fill="#0a9ad7" x="466.91" y="615" width="75.2" height="409"></rect>
	<path fill="#0a9ad7" d="m512,626.69c-172.78,0-313.34-140.56-313.34-313.34S339.22,0,512,0s313.34,140.56,313.34,313.34-140.56,313.34-313.34,313.34Zm0-601.62c-158.95,0-288.28,129.33-288.28,288.28s129.33,288.28,288.28,288.28,288.28-129.33,288.28-288.28S670.95,25.07,512,25.07Z"></path>
</svg>
