<svg xmlns="http://www.w3.org/2000/svg" width="60" height="60" viewBox="0 0 60 60"><g transform="translate(-1000 45)"><rect width="60" height="60" transform="translate(1000 -45)" fill="none"/><g transform="translate(1006 -39)"><path d="M5.679,6.171c-2.536-.355-2.822.024-2.536,3.242,1.4.1,1.678.992,1.622,2.267-.082,1.918-.044,3.842-.014,5.763.02,1.157-.521,1.6-1.639,1.619C.055,19.115.021,19.1.021,16.085c0-1.553.051-3.109-.017-4.661C-.047,10.24.328,9.513,1.5,9.472a16.214,16.214,0,0,1,.678-3.72c.579-1.324,2.045-1.1,3.341-1.126.075-.259.146-.517.221-.775A3.476,3.476,0,0,1,8.751,1.18a96.512,96.512,0,0,1,30.005,0,3.638,3.638,0,0,1,3.187,3.344c3.446.539,3.446.539,3.82,4.891,1.527.065,1.673,1.1,1.629,2.368-.069,1.918-.034,3.842-.013,5.763.01,1.03-.474,1.467-1.479,1.512-3.125.138-3.221.061-3.221-3.078,0-1.512.038-3.027-.014-4.538-.038-1.147.218-1.972,1.541-1.938.572-2.921.075-3.672-2.314-3.32V40.944c0,2.4-.409,2.812-2.757,2.812H8.382c-2.317,0-2.706-.392-2.706-2.7V7.7c0-.482,0-.964,0-1.528m12.6-3.187c-2.737.355-5.32.652-7.89,1.037-1.616.241-1.871.611-1.875,2.293q-.005,9.684,0,19.371c0,1.805.327,2.218,2.147,2.45,2.709.341,5.422.716,8.149.9a79.321,79.321,0,0,0,18.422-.952c1.094-.181,1.8-.642,1.8-1.894Q39,16.015,39.022,5.84a1.57,1.57,0,0,0-1.489-1.756q-3.7-.487-7.4-.935a4.624,4.624,0,0,0-.92.1c.379,1.331-.341,1.686-1.408,1.7-2.6.021-5.208.055-7.812.041-1.114-.007-2.052-.3-1.714-2M34.681,40.658v.007c.774,0,1.547,0,2.321,0a1.86,1.86,0,0,0,1.953-1.351c.4-1.286.058-2.767-.8-3.211A2.1,2.1,0,0,0,36.77,35.9c-1.68.474-3.337,1.041-4.994,1.6a1.524,1.524,0,0,0-1.152,1.774,1.545,1.545,0,0,0,1.615,1.375c.808.048,1.626.01,2.44.01m-21.945,0v.007c.815,0,1.629.017,2.44,0a1.611,1.611,0,0,0,1.741-1.392,1.563,1.563,0,0,0-1.278-1.808c-1.51-.485-3.01-.993-4.523-1.464-1.323-.413-2.291.079-2.556,1.249-.436,1.942.218,3.266,1.731,3.4.811.072,1.629.014,2.445.014" transform="translate(0 -0.006)" fill="#666" fill-rule="evenodd"/><path d="M94.754,129.823h6.279c0,1.313.074,2.562-.047,3.794a1.414,1.414,0,0,1-1.006.913,22.36,22.36,0,0,1-4.1-.007,1.6,1.6,0,0,1-1.073-1.092,28.219,28.219,0,0,1-.054-3.607" transform="translate(-62.101 -85.114)" fill="#666" fill-rule="evenodd"/><path d="M24.531,129.823h6.292c0,1.311.065,2.636-.048,3.943-.027.3-.645.754-1.017.781a28.4,28.4,0,0,1-4.161-.007,1.424,1.424,0,0,1-1.014-.917,37.814,37.814,0,0,1-.051-3.8" transform="translate(-16.066 -85.114)" fill="#666" fill-rule="evenodd"/></g></g></svg>