<?xml version="1.0" encoding="UTF-8"?><svg id="a" xmlns="http://www.w3.org/2000/svg" viewBox="0 0 37 48"><g id="b" transform="translate(-5 0)"><rect x="22.27" y="15.28" width="3.45" height="32.22" style="fill:#264165;"/><g id="c"><circle cx="24" cy="14.88" r="14.38" style="fill:#fff;"/><path d="m24,29.26c-7.93,0-14.38-6.45-14.38-14.38S16.07.5,24,.5s14.38,6.45,14.38,14.38-6.45,14.38-14.38,14.38Zm0-27.61c-7.3,0-13.23,5.94-13.23,13.23s5.94,13.23,13.23,13.23,13.23-5.94,13.23-13.23S31.3,1.65,24,1.65Z" style="fill:#264165;"/></g><g id="d" transform="scale(0.4 0.4) translate(35 12)">
<path id="c" d="m6.53,38.63l-3.79-13.07c-.23-.39-.34-.83-.35-1.29.02-.72.32-1.4.83-1.9l20.59-6.64,18.8,5.89c.42.08.84.19,1.24.34.62.14,1.19.45,1.66.88.76.95-.13,2.71-.21,2.84l-3.87,13.34c-.93-.02-1.86-.16-2.76-.41-2.31-.68-4.37-2.05-5.88-3.93-.56.62-1.19,1.19-1.86,1.69-2,1.56-4.44,2.46-6.98,2.57-3.35-.14-6.47-1.72-8.57-4.33-.36.41-.76.8-1.18,1.15-2.19,1.75-4.87,2.74-7.67,2.84" style="fill:#264165;"/><path id="d" d="m10.69,19.67c-.06-3,0-5.87.14-8.6h25.99v8.53c-.02,1.26-.05,2.53-.07,3.79h4.63v-12.8c-.03-.3-.1-.59-.21-.88-.72-1.42-2.04-2.44-3.59-2.78l-7.19.07V.5h-12.99v6.57h-6.91c-.37-.02-.75.03-1.11.13-1.31.52-2.31,1.62-2.69,2.98v13.14l4.14.13c-.07-1.24-.11-2.5-.14-3.79" style="fill:#264165;"/><path id="e" d="m2.19,47.29v-4.13h3.74c2.54,0,2.85.03,3.32,0,2.24-.25,4.33-1.25,5.93-2.84.43.4.89.76,1.38,1.08,2.52,1.57,5.48,2.26,8.43,1.96,2.73-.23,5.34-1.21,7.53-2.84,1.19.92,2.52,1.63,3.94,2.1,1.56.52,3.2.75,4.84.68h4.28v4.06l-6.29.14c-.46-.04-.95-.11-1.45-.2-1.89-.36-3.69-1.08-5.32-2.1-.76.39-1.55.73-2.35,1.02-1.91.7-3.91,1.11-5.94,1.22-3.12.06-6.19-.71-8.91-2.23-.47.26-.98.51-1.52.74-1.59.7-3.26,1.2-4.98,1.49l-6.64-.13" style="fill:#264165;"/>
</g></g></svg>