<svg xmlns="http://www.w3.org/2000/svg" width="60" height="60" viewBox="0 0 60 60"><g transform="translate(-1309 59)"><rect width="60" height="60" transform="translate(1309 -59)" fill="none"/><g transform="translate(1319 -53)"><path d="M204.258,607.569a2.9,2.9,0,1,1,3.035-2.894,2.971,2.971,0,0,1-3.035,2.894M181.6,594.689a4.486,4.486,0,0,1-4.576-4.359v-9.083a4.484,4.484,0,0,1,4.576-4.359H201.83a4.484,4.484,0,0,1,4.576,4.359v9.083a4.486,4.486,0,0,1-4.576,4.359Zm16.815,8.772H185.009a1.054,1.054,0,1,1,0-2.107h13.408a1.054,1.054,0,1,1,0,2.107m0,3.788H185.009a1.054,1.054,0,1,1,0-2.1h13.408a1.054,1.054,0,1,1,0,2.1m-19.242.319a2.9,2.9,0,1,1,3.04-2.894,2.968,2.968,0,0,1-3.04,2.894m5.836-35.434h13.408a1.054,1.054,0,1,1,0,2.1H185.011a1.054,1.054,0,1,1,0-2.1m24.508,16.471V574.923a5.958,5.958,0,0,0-6.1-5.811H180.14a5.958,5.958,0,0,0-6.1,5.811v13.686c-.029,0-.057-.009-.088-.009a2.679,2.679,0,0,0-2.737,2.612v5.218a2.678,2.678,0,0,0,2.737,2.609c.031,0,.059-.009.088-.009v7.724a5.678,5.678,0,0,0,2.244,4.469v5a2.463,2.463,0,0,0,2.517,2.4h1.039a2.463,2.463,0,0,0,2.511-2.4v-3.66h18.514v3.66a2.465,2.465,0,0,0,2.52,2.4h1.039a2.461,2.461,0,0,0,2.517-2.4v-4.748a5.705,5.705,0,0,0,2.57-4.723v-7.721a2.669,2.669,0,0,0,2.7-2.6V591.2a2.671,2.671,0,0,0-2.7-2.607" transform="translate(-171.215 -569.11)" fill="#666"/></g></g></svg>