<?xml version="1.0" standalone="no"?>
<!DOCTYPE svg PUBLIC "-//W3C//DTD SVG 20010904//EN"
 "http://www.w3.org/TR/2001/REC-SVG-20010904/DTD/svg10.dtd">
<svg version="1.0" xmlns="http://www.w3.org/2000/svg"
 width="112.000000pt" height="112.000000pt" viewBox="0 0 112.000000 112.000000"
 preserveAspectRatio="xMidYMid meet">
<g transform="translate(0.000000,112.000000) scale(0.100000,-0.100000)"
fill="#666" stroke="none">
<path d="M10 560 l0 -550 164 0 164 0 12 47 c16 64 44 107 86 134 l35 22 -39
23 c-53 32 -83 94 -90 185 l-5 69 77 0 76 0 0 -59 c0 -66 17 -96 61 -106 39
-10 79 29 86 83 l6 42 74 0 74 0 -6 -47 c-13 -87 -58 -160 -117 -187 -11 -5
-11 -7 0 -12 55 -25 111 -109 112 -166 l0 -28 165 0 165 0 0 550 0 550 -165 0
-165 0 0 -25 c0 -58 -45 -129 -105 -166 -16 -11 -24 -19 -16 -19 26 0 83 -53
101 -94 10 -23 20 -61 22 -86 l3 -45 -71 -3 -71 -3 -6 42 c-7 52 -36 82 -77
82 -41 0 -62 -23 -69 -75 l-6 -43 -74 -3 -74 -3 6 52 c9 75 41 135 88 163 l40
23 -35 21 c-43 25 -71 68 -86 134 l-12 48 -164 0 -164 0 0 -550z m780 25 l0
-55 -225 0 -225 0 0 55 0 55 225 0 225 0 0 -55z"/>
<path d="M490 1087 c0 -40 27 -67 68 -67 20 0 42 4 49 8 12 7 33 54 33 73 0 5
-34 9 -75 9 -71 0 -75 -1 -75 -23z"/>
<path d="M510 80 c-11 -11 -20 -31 -20 -45 0 -24 2 -25 76 -25 l76 0 -7 27
c-3 16 -14 36 -22 46 -22 23 -78 22 -103 -3z"/>
</g>
</svg>
