<?xml version="1.0" ?>
<svg viewBox="0 0 14 20" version="1.1" xmlns="http://www.w3.org/2000/svg" xmlns:xlink="http://www.w3.org/1999/xlink"><g fill="#686868" transform="translate(-3537 -3715)"><path d="M2,0A2,2,0,1,1,0,2,2,2,0,0,1,2,0Z" transform="translate(3542 3715)"/><path d="M19,13V11a5.615,5.615,0,0,1-4.07-1.83L13.64,7.74a1.934,1.934,0,0,0-.61-.45c-.01,0-.01-.01-.02-.01H13a1.957,1.957,0,0,0-1.25-.25A2.048,2.048,0,0,0,10,9.1V17h7v5h2V14.5H14V11.05A8.531,8.531,0,0,0,19,13Zm-6.17,5A3,3,0,1,1,9,14.17V12.1A5,5,0,1,0,14.9,18Z" transform="translate(3532 3713)"/></g></svg>