<svg xmlns="http://www.w3.org/2000/svg" width="60" height="60" viewBox="0 0 60 60"><g transform="translate(-1154 24)"><rect width="60" height="60" transform="translate(1154 -24)" fill="none"/><g transform="translate(564.284 -323.101)"><path d="M327.288,706.207l-2.68,4.282a1.562,1.562,0,0,0,.644,2.224,1.893,1.893,0,0,0,.883.217,1.793,1.793,0,0,0,1.529-.816l3.671-5.864h-3.152c-.3,0-.6-.019-.895-.043" transform="translate(282.521 -356.366)" fill="#666"/><path d="M348.436,706.25l3.67,5.866a1.792,1.792,0,0,0,1.528.814,1.867,1.867,0,0,0,.879-.217,1.559,1.559,0,0,0,.645-2.226l-2.677-4.278c-.291.024-.586.041-.885.041Z" transform="translate(278.038 -356.366)" fill="#666"/><rect width="2.128" height="5.385" transform="translate(619.123 305.546)" fill="#666"/><path d="M350.162,662.03a4.081,4.081,0,0,0-1.932-3.247,6.572,6.572,0,0,0-4.18-.9l-14.7.042a3.977,3.977,0,0,0-.942.109,6.881,6.881,0,0,0-2.748,1.37l-.018.015a3.978,3.978,0,0,0-1.366,2.858q-.7,12.819-1.4,25.637a8.5,8.5,0,0,0,.316,2.344,7.482,7.482,0,0,0,2.613,4.082,7.1,7.1,0,0,0,3.825,1.395l16.084-.113a4.032,4.032,0,0,0,1.306-.217,6.976,6.976,0,0,0,1.7-.87,8.055,8.055,0,0,0,3.116-5.224,4.135,4.135,0,0,0,.052-.993Zm-22.994,25.28a1.863,1.863,0,1,1,1.941-1.861A1.9,1.9,0,0,1,327.167,687.31Zm-.71-10.874v-10.23a3.787,3.787,0,0,1,3.787-3.787H344.53a3.787,3.787,0,0,1,3.787,3.787v10.23a3.788,3.788,0,0,1-3.787,3.787H330.245A3.787,3.787,0,0,1,326.458,676.436Zm4.471,10.588a.947.947,0,1,1,1.007-.945A.978.978,0,0,1,330.929,687.024Zm12.8.169a.947.947,0,1,1,1.007-.945A.977.977,0,0,1,343.725,687.193Zm3.852.027a1.822,1.822,0,1,1,1.971-1.816A1.9,1.9,0,0,1,347.577,687.22Z" transform="translate(282.8 -347.354)" fill="#666"/><rect width="15.684" height="2.889" rx="0.937" transform="translate(612.345 302.874)" fill="#666"/></g></g></svg>