<svg xmlns="http://www.w3.org/2000/svg" width="131.073" height="166.542" viewBox="0 0 131.073 166.542"><g transform="translate(1869 -1821.606)"><path d="M103.588,131.884a9.08,9.08,0,1,1,9.516-9.072,9.316,9.316,0,0,1-9.516,9.072M32.562,91.5c-7.887,0-14.343-6.153-14.343-13.666V49.367c0-7.521,6.456-13.666,14.343-13.666H95.979c7.887,0,14.344,6.145,14.344,13.666V77.839c0,7.513-6.457,13.666-14.344,13.666ZM85.281,119H43.248a3.3,3.3,0,1,1,0-6.6H85.281a3.305,3.305,0,1,1,0,6.6m0,11.878H43.248a3.3,3.3,0,1,1,0-6.6H85.281a3.3,3.3,0,1,1,0,6.6m-60.327,1a9.08,9.08,0,1,1,0-18.14,9.081,9.081,0,1,1,0,18.14M43.248,20.792H85.281a3.3,3.3,0,1,1,0,6.6H43.248a3.3,3.3,0,1,1,0-6.6m76.833,51.642V29.54c0-10.062-8.556-18.219-19.121-18.219H27.981c-10.573,0-19.125,8.157-19.125,18.219V72.446c-.092-.008-.179-.029-.275-.029A8.4,8.4,0,0,0,0,80.6V96.96a8.4,8.4,0,0,0,8.581,8.182c.1,0,.183-.029.275-.029v24.214a17.806,17.806,0,0,0,7.034,14.012v15.682a7.718,7.718,0,0,0,7.891,7.521h3.256a7.719,7.719,0,0,0,7.895-7.521V147.546H92.973v11.475a7.726,7.726,0,0,0,7.9,7.521h3.255a7.714,7.714,0,0,0,7.9-7.521V144.137a17.9,17.9,0,0,0,8.058-14.81v-24.2a8.372,8.372,0,0,0,8.465-8.166V80.6a8.369,8.369,0,0,0-8.465-8.17" transform="translate(-1869 1821.605)"></path><path d="M83.3,24.387a23.387,23.387,0,1,1,23.387,23.387A23.387,23.387,0,0,1,83.3,24.387" transform="translate(-1869 1821.605)" fill="#fff"></path><path d="M23.387-1A24.393,24.393,0,0,1,32.88,45.857,24.393,24.393,0,0,1,13.894.917,24.235,24.235,0,0,1,23.387-1Zm0,46.774A22.393,22.393,0,0,0,32.1,2.759,22.393,22.393,0,0,0,14.673,44.015,22.246,22.246,0,0,0,23.387,45.774Z" transform="translate(-1785.701 1822.606)"></path><path d="M94.779,38.178V9.545H100.4l11.719,19.121V9.545h5.371V38.178h-5.8L100.15,19.506V38.178Z" transform="translate(-1869 1821.605)"></path></g></svg>