<?xml version="1.0" ?>
<svg viewBox="0 0 12 12" version="1.1" xmlns="http://www.w3.org/2000/svg" xmlns:xlink="http://www.w3.org/1999/xlink">
	<path id="schedule_FILL0_wght300_GRAD0_opsz48" class="cls-1" d="m8.37,8.92l.54-.54-2.51-2.53v-3.17h-.71v3.46l2.68,2.78Zm-2.37,3.08c-.8,0-1.59-.16-2.33-.47-1.44-.61-2.59-1.76-3.2-3.2C-.16,6.84-.16,5.16.47,3.67,1.08,2.23,2.23,1.08,3.67.47,5.16-.16,6.84-.16,8.33.47c1.44.61,2.59,1.76,3.2,3.2.63,1.49.63,3.17,0,4.66-.61,1.44-1.76,2.59-3.2,3.2-.74.32-1.53.48-2.33.47Zm0-.71c1.41.02,2.76-.54,3.73-1.56,1.01-.98,1.57-2.33,1.56-3.73.02-1.41-.54-2.76-1.56-3.73-.98-1.01-2.33-1.57-3.73-1.56-1.41-.02-2.76.54-3.73,1.56-1.01.98-1.57,2.33-1.56,3.73-.02,1.41.54,2.76,1.56,3.73.98,1.01,2.33,1.57,3.73,1.56Z"></path>
</svg>