<?xml version="1.0" encoding="UTF-8" standalone="no"?>
<svg
   width="9px"
   height="32px"
   viewBox="0 0 9 32"
   xmlns="http://www.w3.org/2000/svg"
   xmlns:svg="http://www.w3.org/2000/svg">
  <defs
     id="defs219">
    <style
       id="style217">.cls-1{fill:#E4E4E4;}.cls-2{color:#3A3A3A;}.cls-2,.cls-3,.cls-5{stroke:#6e6f72;stroke-width:0.11px;}.cls-2,.cls-5{stroke-miterlimit:10;}.cls-3{fill:none;stroke-linecap:round;stroke-linejoin:round;}.cls-4{fill: #ffffff;opacity:0.35;isolation:isolate;}.cls-5{fill:var(--color-bright);}.cls-6{fill:var(--color-regular);}</style>
  </defs>
  <title
     id="title221">grey-car-vert</title>
  <polygon
     class="cls-6"
     points="8.78 22.88 8.78 25.88 0.22 25.88 0.22 22.88 4.5 23.38 8.78 22.88"
     id="polygon223" />
  <path
     class="cls-6"
     d="M8.78,25.87l-.22,2.21C8,30.23,6.91,32,4.62,32H4.38C2.08,32,1,30.47.47,28.33L.23,25.87Z"
     id="path225" />
  <path
     class="cls-2"
     d="M1.43,29.29l.5,1.3a3.49,3.49,0,0,0,2.54.79,4.14,4.14,0,0,0,2.69-.81l.57-1.34Z"
     id="path227"/>
  <path
     class="cls-6"
     d="M4.45,25.87h-4l.31,2.31a1.18,1.18,0,0,0,.09.37v.09a1.68,1.68,0,0,0,.63.74l.2.12a1.47,1.47,0,0,0,.28.14,7.26,7.26,0,0,0,2.48.5A7.47,7.47,0,0,0,7,29.64a.87.87,0,0,0,.27-.14l.2-.12a1.67,1.67,0,0,0,.64-.73v-.1a1.12,1.12,0,0,0,.09-.36l.3-2.31"
     id="path229"/>
  <path
     class="cls-3"
     d="M1.81,27.11a1.61,1.61,0,0,0,.13.78l.5.85a1.8,1.8,0,0,0,1.19.86l.83.1V25.87H1.81Z"
     id="window1" />
  <path
     class="cls-3"
     d="M5.28,29.61a1.78,1.78,0,0,0,1.17-.86l.49-.86a1.4,1.4,0,0,0,.14-.78V25.87H4.47v3.82Z"
     id="path233" />
  <path
     class="cls-4"
     d="M2.3,18.54v8.33a1.63,1.63,0,0,0,1.79,1.36H4.8a1.63,1.63,0,0,0,1.78-1.36V18.54Z"
     id="path235" />
  <polygon
     class="cls-6"
     points="0.22 9.12 0.22 6.13 8.78 6.13 8.78 9.12 4.5 8.62 0.22 9.12"
     id="polygon237" />
  <path
     class="cls-6"
     d="M.22,6.13.44,3.92C1,1.77,2.08,0,4.38,0h.24C6.91,0,8,1.53,8.53,3.67l.25,2.46Z"
     id="path239" />
  <path
     class="cls-2"
     d="M7.57,2.71l-.49-1.3A3.53,3.53,0,0,0,4.53.62a4.14,4.14,0,0,0-2.69.81L1.27,2.77Z"
     id="window1" />
  <path
     class="cls-6"
     d="M4.55,6.13h4L8.29,3.82a1.58,1.58,0,0,0-.11-.37V3.36a1.68,1.68,0,0,0-.63-.74L7.32,2.5A1.47,1.47,0,0,0,7,2.36a7.27,7.27,0,0,0-2.49-.5A7.36,7.36,0,0,0,2,2.36a1.11,1.11,0,0,0-.29.14l-.19.12a1.54,1.54,0,0,0-.63.73v.1a2.37,2.37,0,0,0-.09.36L.43,6.12"
     id="path243" />
  <path
     class="cls-3"
     d="M7.2,4.89a1.62,1.62,0,0,0-.14-.78l-.5-.85A1.8,1.8,0,0,0,5.37,2.4l-.83-.1V6.13H7.2Z"
     id="path245" />
  <path
     class="cls-3"
     d="M3.7,2.4a1.76,1.76,0,0,0-1.17.86l-.45.85a1.75,1.75,0,0,0-.15.78V6.13h2.6V2.31Z"
     id="path247" />
  <path
     class="cls-4"
     d="M6.7,13.46V5.13A1.62,1.62,0,0,0,4.92,3.77H4.21A1.62,1.62,0,0,0,2.42,5.13v8.34Z"
     id="path249" />
  <polygon
     class="cls-1"
     points="8.78 8.64 8.78 10.42 9 10.71 9 15.3 8.78 15.57 8.78 16.52 9 16.78 9 21.4 8.78 21.64 8.78 23.48 0.23 23.48 0.23 21.66 0 21.41 0 16.75 0.23 16.5 0.23 15.59 0 15.34 0 10.69 0.23 10.43 0.23 8.64 8.78 8.64"
     id="polygon251" />
  <rect
     class="cls-1"
     x="0.48"
     y="8.66"
     width="8.05"
     height="14.82"
     id="rect253" />
  <polygon
     class="cls-5"
     points="0.22 10.43 4.5 9.52 8.78 10.43 8.78 8.61 0.22 8.61 0.22 10.43"
     id="polygon255" />
  <polygon
     class="cls-5"
     points="8.78 21.66 4.5 22.57 0.22 21.66 0.22 23.48 8.78 23.48 8.78 21.66"
     id="polygon257"/>
</svg>
